<?xml version="1.0" encoding="utf-8" standalone="no"?>
<!DOCTYPE svg PUBLIC "-//W3C//DTD SVG 1.1//EN"
  "http://www.w3.org/Graphics/SVG/1.1/DTD/svg11.dtd">
<svg xmlns:xlink="http://www.w3.org/1999/xlink" width="460.8pt" height="345.6pt" viewBox="0 0 460.8 345.6" xmlns="http://www.w3.org/2000/svg" version="1.1">
 <metadata>
  <rdf:RDF xmlns:dc="http://purl.org/dc/elements/1.1/" xmlns:cc="http://creativecommons.org/ns#" xmlns:rdf="http://www.w3.org/1999/02/22-rdf-syntax-ns#">
   <cc:Work>
    <dc:type rdf:resource="http://purl.org/dc/dcmitype/StillImage"/>
    <dc:date>2024-12-12T09:22:45.542655</dc:date>
    <dc:format>image/svg+xml</dc:format>
    <dc:creator>
     <cc:Agent>
      <dc:title>Matplotlib v3.7.5, https://matplotlib.org/</dc:title>
     </cc:Agent>
    </dc:creator>
   </cc:Work>
  </rdf:RDF>
 </metadata>
 <defs>
  <style type="text/css">*{stroke-linejoin: round; stroke-linecap: butt}</style>
 </defs>
 <g id="figure_1">
  <g id="patch_1">
   <path d="M 0 345.6 
L 460.8 345.6 
L 460.8 0 
L 0 0 
z
" style="fill: #ffffff"/>
  </g>
  <g id="axes_1">
   <g id="patch_2">
    <path d="M 54.02 303.64 
L 450 303.64 
L 450 10.8 
L 54.02 10.8 
z
" style="fill: #ffffff"/>
   </g>
   <g id="patch_3">
    <path d="M 72.019091 303.64 
L 80.200496 303.64 
L 80.200496 303.64 
L 72.019091 303.64 
z
" clip-path="url(#pef2dac19b4)" style="fill: #dc143c"/>
   </g>
   <g id="patch_4">
    <path d="M 80.200496 303.64 
L 88.381901 303.64 
L 88.381901 303.64 
L 80.200496 303.64 
z
" clip-path="url(#pef2dac19b4)" style="fill: #dc143c"/>
   </g>
   <g id="patch_5">
    <path d="M 88.381901 303.64 
L 96.563306 303.64 
L 96.563306 149.766765 
L 88.381901 149.766765 
z
" clip-path="url(#pef2dac19b4)" style="fill: #dc143c"/>
   </g>
   <g id="patch_6">
    <path d="M 96.563306 303.64 
L 104.744711 303.64 
L 104.744711 232.621584 
L 96.563306 232.621584 
z
" clip-path="url(#pef2dac19b4)" style="fill: #dc143c"/>
   </g>
   <g id="patch_7">
    <path d="M 104.744711 303.64 
L 112.926116 303.64 
L 112.926116 149.766765 
L 104.744711 149.766765 
z
" clip-path="url(#pef2dac19b4)" style="fill: #dc143c"/>
   </g>
   <g id="patch_8">
    <path d="M 112.926116 303.64 
L 121.107521 303.64 
L 121.107521 279.967195 
L 112.926116 279.967195 
z
" clip-path="url(#pef2dac19b4)" style="fill: #dc143c"/>
   </g>
   <g id="patch_9">
    <path d="M 121.107521 303.64 
L 129.288926 303.64 
L 129.288926 244.457987 
L 121.107521 244.457987 
z
" clip-path="url(#pef2dac19b4)" style="fill: #dc143c"/>
   </g>
   <g id="patch_10">
    <path d="M 129.288926 303.64 
L 137.470331 303.64 
L 137.470331 268.130792 
L 129.288926 268.130792 
z
" clip-path="url(#pef2dac19b4)" style="fill: #dc143c"/>
   </g>
   <g id="patch_11">
    <path d="M 137.470331 303.64 
L 145.651736 303.64 
L 145.651736 268.130792 
L 137.470331 268.130792 
z
" clip-path="url(#pef2dac19b4)" style="fill: #dc143c"/>
   </g>
   <g id="patch_12">
    <path d="M 145.651736 303.64 
L 153.83314 303.64 
L 153.83314 291.803597 
L 145.651736 291.803597 
z
" clip-path="url(#pef2dac19b4)" style="fill: #dc143c"/>
   </g>
   <g id="patch_13">
    <path d="M 153.83314 303.64 
L 162.014545 303.64 
L 162.014545 291.803597 
L 153.83314 291.803597 
z
" clip-path="url(#pef2dac19b4)" style="fill: #dc143c"/>
   </g>
   <g id="patch_14">
    <path d="M 162.014545 303.64 
L 170.19595 303.64 
L 170.19595 279.967195 
L 162.014545 279.967195 
z
" clip-path="url(#pef2dac19b4)" style="fill: #dc143c"/>
   </g>
   <g id="patch_15">
    <path d="M 170.19595 303.64 
L 178.377355 303.64 
L 178.377355 291.803597 
L 170.19595 291.803597 
z
" clip-path="url(#pef2dac19b4)" style="fill: #dc143c"/>
   </g>
   <g id="patch_16">
    <path d="M 178.377355 303.64 
L 186.55876 303.64 
L 186.55876 303.64 
L 178.377355 303.64 
z
" clip-path="url(#pef2dac19b4)" style="fill: #dc143c"/>
   </g>
   <g id="patch_17">
    <path d="M 186.55876 303.64 
L 194.740165 303.64 
L 194.740165 303.64 
L 186.55876 303.64 
z
" clip-path="url(#pef2dac19b4)" style="fill: #dc143c"/>
   </g>
   <g id="patch_18">
    <path d="M 194.740165 303.64 
L 202.92157 303.64 
L 202.92157 291.803597 
L 194.740165 291.803597 
z
" clip-path="url(#pef2dac19b4)" style="fill: #dc143c"/>
   </g>
   <g id="patch_19">
    <path d="M 202.92157 303.64 
L 211.102975 303.64 
L 211.102975 291.803597 
L 202.92157 291.803597 
z
" clip-path="url(#pef2dac19b4)" style="fill: #dc143c"/>
   </g>
   <g id="patch_20">
    <path d="M 211.102975 303.64 
L 219.28438 303.64 
L 219.28438 291.803597 
L 211.102975 291.803597 
z
" clip-path="url(#pef2dac19b4)" style="fill: #dc143c"/>
   </g>
   <g id="patch_21">
    <path d="M 219.28438 303.64 
L 227.465785 303.64 
L 227.465785 291.803597 
L 219.28438 291.803597 
z
" clip-path="url(#pef2dac19b4)" style="fill: #dc143c"/>
   </g>
   <g id="patch_22">
    <path d="M 227.465785 303.64 
L 235.64719 303.64 
L 235.64719 303.64 
L 227.465785 303.64 
z
" clip-path="url(#pef2dac19b4)" style="fill: #dc143c"/>
   </g>
   <g id="patch_23">
    <path d="M 235.64719 303.64 
L 243.828595 303.64 
L 243.828595 303.64 
L 235.64719 303.64 
z
" clip-path="url(#pef2dac19b4)" style="fill: #dc143c"/>
   </g>
   <g id="patch_24">
    <path d="M 243.828595 303.64 
L 252.01 303.64 
L 252.01 303.64 
L 243.828595 303.64 
z
" clip-path="url(#pef2dac19b4)" style="fill: #dc143c"/>
   </g>
   <g id="patch_25">
    <path d="M 252.01 303.64 
L 260.191405 303.64 
L 260.191405 303.64 
L 252.01 303.64 
z
" clip-path="url(#pef2dac19b4)" style="fill: #dc143c"/>
   </g>
   <g id="patch_26">
    <path d="M 260.191405 303.64 
L 268.37281 303.64 
L 268.37281 291.803597 
L 260.191405 291.803597 
z
" clip-path="url(#pef2dac19b4)" style="fill: #dc143c"/>
   </g>
   <g id="patch_27">
    <path d="M 268.37281 303.64 
L 276.554215 303.64 
L 276.554215 303.64 
L 268.37281 303.64 
z
" clip-path="url(#pef2dac19b4)" style="fill: #dc143c"/>
   </g>
   <g id="patch_28">
    <path d="M 276.554215 303.64 
L 284.73562 303.64 
L 284.73562 303.64 
L 276.554215 303.64 
z
" clip-path="url(#pef2dac19b4)" style="fill: #dc143c"/>
   </g>
   <g id="patch_29">
    <path d="M 284.73562 303.64 
L 292.917025 303.64 
L 292.917025 291.803597 
L 284.73562 291.803597 
z
" clip-path="url(#pef2dac19b4)" style="fill: #dc143c"/>
   </g>
   <g id="patch_30">
    <path d="M 292.917025 303.64 
L 301.09843 303.64 
L 301.09843 303.64 
L 292.917025 303.64 
z
" clip-path="url(#pef2dac19b4)" style="fill: #dc143c"/>
   </g>
   <g id="patch_31">
    <path d="M 301.09843 303.64 
L 309.279835 303.64 
L 309.279835 303.64 
L 301.09843 303.64 
z
" clip-path="url(#pef2dac19b4)" style="fill: #dc143c"/>
   </g>
   <g id="patch_32">
    <path d="M 309.279835 303.64 
L 317.46124 303.64 
L 317.46124 303.64 
L 309.279835 303.64 
z
" clip-path="url(#pef2dac19b4)" style="fill: #dc143c"/>
   </g>
   <g id="patch_33">
    <path d="M 317.46124 303.64 
L 325.642645 303.64 
L 325.642645 291.803597 
L 317.46124 291.803597 
z
" clip-path="url(#pef2dac19b4)" style="fill: #dc143c"/>
   </g>
   <g id="patch_34">
    <path d="M 325.642645 303.64 
L 333.82405 303.64 
L 333.82405 303.64 
L 325.642645 303.64 
z
" clip-path="url(#pef2dac19b4)" style="fill: #dc143c"/>
   </g>
   <g id="patch_35">
    <path d="M 333.82405 303.64 
L 342.005455 303.64 
L 342.005455 303.64 
L 333.82405 303.64 
z
" clip-path="url(#pef2dac19b4)" style="fill: #dc143c"/>
   </g>
   <g id="patch_36">
    <path d="M 342.005455 303.64 
L 350.18686 303.64 
L 350.18686 303.64 
L 342.005455 303.64 
z
" clip-path="url(#pef2dac19b4)" style="fill: #dc143c"/>
   </g>
   <g id="patch_37">
    <path d="M 350.18686 303.64 
L 358.368264 303.64 
L 358.368264 303.64 
L 350.18686 303.64 
z
" clip-path="url(#pef2dac19b4)" style="fill: #dc143c"/>
   </g>
   <g id="patch_38">
    <path d="M 358.368264 303.64 
L 366.549669 303.64 
L 366.549669 303.64 
L 358.368264 303.64 
z
" clip-path="url(#pef2dac19b4)" style="fill: #dc143c"/>
   </g>
   <g id="patch_39">
    <path d="M 366.549669 303.64 
L 374.731074 303.64 
L 374.731074 303.64 
L 366.549669 303.64 
z
" clip-path="url(#pef2dac19b4)" style="fill: #dc143c"/>
   </g>
   <g id="patch_40">
    <path d="M 374.731074 303.64 
L 382.912479 303.64 
L 382.912479 303.64 
L 374.731074 303.64 
z
" clip-path="url(#pef2dac19b4)" style="fill: #dc143c"/>
   </g>
   <g id="patch_41">
    <path d="M 382.912479 303.64 
L 391.093884 303.64 
L 391.093884 303.64 
L 382.912479 303.64 
z
" clip-path="url(#pef2dac19b4)" style="fill: #dc143c"/>
   </g>
   <g id="patch_42">
    <path d="M 391.093884 303.64 
L 399.275289 303.64 
L 399.275289 291.803597 
L 391.093884 291.803597 
z
" clip-path="url(#pef2dac19b4)" style="fill: #dc143c"/>
   </g>
   <g id="patch_43">
    <path d="M 399.275289 303.64 
L 407.456694 303.64 
L 407.456694 303.64 
L 399.275289 303.64 
z
" clip-path="url(#pef2dac19b4)" style="fill: #dc143c"/>
   </g>
   <g id="patch_44">
    <path d="M 407.456694 303.64 
L 415.638099 303.64 
L 415.638099 303.64 
L 407.456694 303.64 
z
" clip-path="url(#pef2dac19b4)" style="fill: #dc143c"/>
   </g>
   <g id="patch_45">
    <path d="M 415.638099 303.64 
L 423.819504 303.64 
L 423.819504 303.64 
L 415.638099 303.64 
z
" clip-path="url(#pef2dac19b4)" style="fill: #dc143c"/>
   </g>
   <g id="patch_46">
    <path d="M 423.819504 303.64 
L 432.000909 303.64 
L 432.000909 303.64 
L 423.819504 303.64 
z
" clip-path="url(#pef2dac19b4)" style="fill: #dc143c"/>
   </g>
   <g id="patch_47">
    <path d="M 72.019091 303.64 
L 80.200496 303.64 
L 80.200496 303.64 
L 72.019091 303.64 
z
" clip-path="url(#pef2dac19b4)" style="fill: #32cd32; opacity: 0.7"/>
   </g>
   <g id="patch_48">
    <path d="M 80.200496 303.64 
L 88.381901 303.64 
L 88.381901 303.64 
L 80.200496 303.64 
z
" clip-path="url(#pef2dac19b4)" style="fill: #32cd32; opacity: 0.7"/>
   </g>
   <g id="patch_49">
    <path d="M 88.381901 303.64 
L 96.563306 303.64 
L 96.563306 24.744762 
L 88.381901 24.744762 
z
" clip-path="url(#pef2dac19b4)" style="fill: #32cd32; opacity: 0.7"/>
   </g>
   <g id="patch_50">
    <path d="M 96.563306 303.64 
L 104.744711 303.64 
L 104.744711 260.73304 
L 96.563306 260.73304 
z
" clip-path="url(#pef2dac19b4)" style="fill: #32cd32; opacity: 0.7"/>
   </g>
   <g id="patch_51">
    <path d="M 104.744711 303.64 
L 112.926116 303.64 
L 112.926116 260.73304 
L 104.744711 260.73304 
z
" clip-path="url(#pef2dac19b4)" style="fill: #32cd32; opacity: 0.7"/>
   </g>
   <g id="patch_52">
    <path d="M 112.926116 303.64 
L 121.107521 303.64 
L 121.107521 303.64 
L 112.926116 303.64 
z
" clip-path="url(#pef2dac19b4)" style="fill: #32cd32; opacity: 0.7"/>
   </g>
   <g id="patch_53">
    <path d="M 121.107521 303.64 
L 129.288926 303.64 
L 129.288926 260.73304 
L 121.107521 260.73304 
z
" clip-path="url(#pef2dac19b4)" style="fill: #32cd32; opacity: 0.7"/>
   </g>
   <g id="patch_54">
    <path d="M 129.288926 303.64 
L 137.470331 303.64 
L 137.470331 260.73304 
L 129.288926 260.73304 
z
" clip-path="url(#pef2dac19b4)" style="fill: #32cd32; opacity: 0.7"/>
   </g>
   <g id="patch_55">
    <path d="M 137.470331 303.64 
L 145.651736 303.64 
L 145.651736 260.73304 
L 137.470331 260.73304 
z
" clip-path="url(#pef2dac19b4)" style="fill: #32cd32; opacity: 0.7"/>
   </g>
   <g id="patch_56">
    <path d="M 145.651736 303.64 
L 153.83314 303.64 
L 153.83314 303.64 
L 145.651736 303.64 
z
" clip-path="url(#pef2dac19b4)" style="fill: #32cd32; opacity: 0.7"/>
   </g>
   <g id="patch_57">
    <path d="M 153.83314 303.64 
L 162.014545 303.64 
L 162.014545 282.18652 
L 153.83314 282.18652 
z
" clip-path="url(#pef2dac19b4)" style="fill: #32cd32; opacity: 0.7"/>
   </g>
   <g id="patch_58">
    <path d="M 162.014545 303.64 
L 170.19595 303.64 
L 170.19595 282.18652 
L 162.014545 282.18652 
z
" clip-path="url(#pef2dac19b4)" style="fill: #32cd32; opacity: 0.7"/>
   </g>
   <g id="patch_59">
    <path d="M 170.19595 303.64 
L 178.377355 303.64 
L 178.377355 282.18652 
L 170.19595 282.18652 
z
" clip-path="url(#pef2dac19b4)" style="fill: #32cd32; opacity: 0.7"/>
   </g>
   <g id="patch_60">
    <path d="M 178.377355 303.64 
L 186.55876 303.64 
L 186.55876 303.64 
L 178.377355 303.64 
z
" clip-path="url(#pef2dac19b4)" style="fill: #32cd32; opacity: 0.7"/>
   </g>
   <g id="patch_61">
    <path d="M 186.55876 303.64 
L 194.740165 303.64 
L 194.740165 303.64 
L 186.55876 303.64 
z
" clip-path="url(#pef2dac19b4)" style="fill: #32cd32; opacity: 0.7"/>
   </g>
   <g id="patch_62">
    <path d="M 194.740165 303.64 
L 202.92157 303.64 
L 202.92157 282.18652 
L 194.740165 282.18652 
z
" clip-path="url(#pef2dac19b4)" style="fill: #32cd32; opacity: 0.7"/>
   </g>
   <g id="patch_63">
    <path d="M 202.92157 303.64 
L 211.102975 303.64 
L 211.102975 303.64 
L 202.92157 303.64 
z
" clip-path="url(#pef2dac19b4)" style="fill: #32cd32; opacity: 0.7"/>
   </g>
   <g id="patch_64">
    <path d="M 211.102975 303.64 
L 219.28438 303.64 
L 219.28438 282.18652 
L 211.102975 282.18652 
z
" clip-path="url(#pef2dac19b4)" style="fill: #32cd32; opacity: 0.7"/>
   </g>
   <g id="patch_65">
    <path d="M 219.28438 303.64 
L 227.465785 303.64 
L 227.465785 282.18652 
L 219.28438 282.18652 
z
" clip-path="url(#pef2dac19b4)" style="fill: #32cd32; opacity: 0.7"/>
   </g>
   <g id="patch_66">
    <path d="M 227.465785 303.64 
L 235.64719 303.64 
L 235.64719 303.64 
L 227.465785 303.64 
z
" clip-path="url(#pef2dac19b4)" style="fill: #32cd32; opacity: 0.7"/>
   </g>
   <g id="patch_67">
    <path d="M 235.64719 303.64 
L 243.828595 303.64 
L 243.828595 303.64 
L 235.64719 303.64 
z
" clip-path="url(#pef2dac19b4)" style="fill: #32cd32; opacity: 0.7"/>
   </g>
   <g id="patch_68">
    <path d="M 243.828595 303.64 
L 252.01 303.64 
L 252.01 303.64 
L 243.828595 303.64 
z
" clip-path="url(#pef2dac19b4)" style="fill: #32cd32; opacity: 0.7"/>
   </g>
   <g id="patch_69">
    <path d="M 252.01 303.64 
L 260.191405 303.64 
L 260.191405 303.64 
L 252.01 303.64 
z
" clip-path="url(#pef2dac19b4)" style="fill: #32cd32; opacity: 0.7"/>
   </g>
   <g id="patch_70">
    <path d="M 260.191405 303.64 
L 268.37281 303.64 
L 268.37281 282.18652 
L 260.191405 282.18652 
z
" clip-path="url(#pef2dac19b4)" style="fill: #32cd32; opacity: 0.7"/>
   </g>
   <g id="patch_71">
    <path d="M 268.37281 303.64 
L 276.554215 303.64 
L 276.554215 303.64 
L 268.37281 303.64 
z
" clip-path="url(#pef2dac19b4)" style="fill: #32cd32; opacity: 0.7"/>
   </g>
   <g id="patch_72">
    <path d="M 276.554215 303.64 
L 284.73562 303.64 
L 284.73562 303.64 
L 276.554215 303.64 
z
" clip-path="url(#pef2dac19b4)" style="fill: #32cd32; opacity: 0.7"/>
   </g>
   <g id="patch_73">
    <path d="M 284.73562 303.64 
L 292.917025 303.64 
L 292.917025 303.64 
L 284.73562 303.64 
z
" clip-path="url(#pef2dac19b4)" style="fill: #32cd32; opacity: 0.7"/>
   </g>
   <g id="patch_74">
    <path d="M 292.917025 303.64 
L 301.09843 303.64 
L 301.09843 303.64 
L 292.917025 303.64 
z
" clip-path="url(#pef2dac19b4)" style="fill: #32cd32; opacity: 0.7"/>
   </g>
   <g id="patch_75">
    <path d="M 301.09843 303.64 
L 309.279835 303.64 
L 309.279835 303.64 
L 301.09843 303.64 
z
" clip-path="url(#pef2dac19b4)" style="fill: #32cd32; opacity: 0.7"/>
   </g>
   <g id="patch_76">
    <path d="M 309.279835 303.64 
L 317.46124 303.64 
L 317.46124 303.64 
L 309.279835 303.64 
z
" clip-path="url(#pef2dac19b4)" style="fill: #32cd32; opacity: 0.7"/>
   </g>
   <g id="patch_77">
    <path d="M 317.46124 303.64 
L 325.642645 303.64 
L 325.642645 282.18652 
L 317.46124 282.18652 
z
" clip-path="url(#pef2dac19b4)" style="fill: #32cd32; opacity: 0.7"/>
   </g>
   <g id="patch_78">
    <path d="M 325.642645 303.64 
L 333.82405 303.64 
L 333.82405 303.64 
L 325.642645 303.64 
z
" clip-path="url(#pef2dac19b4)" style="fill: #32cd32; opacity: 0.7"/>
   </g>
   <g id="patch_79">
    <path d="M 333.82405 303.64 
L 342.005455 303.64 
L 342.005455 303.64 
L 333.82405 303.64 
z
" clip-path="url(#pef2dac19b4)" style="fill: #32cd32; opacity: 0.7"/>
   </g>
   <g id="patch_80">
    <path d="M 342.005455 303.64 
L 350.18686 303.64 
L 350.18686 303.64 
L 342.005455 303.64 
z
" clip-path="url(#pef2dac19b4)" style="fill: #32cd32; opacity: 0.7"/>
   </g>
   <g id="patch_81">
    <path d="M 350.18686 303.64 
L 358.368264 303.64 
L 358.368264 303.64 
L 350.18686 303.64 
z
" clip-path="url(#pef2dac19b4)" style="fill: #32cd32; opacity: 0.7"/>
   </g>
   <g id="patch_82">
    <path d="M 358.368264 303.64 
L 366.549669 303.64 
L 366.549669 303.64 
L 358.368264 303.64 
z
" clip-path="url(#pef2dac19b4)" style="fill: #32cd32; opacity: 0.7"/>
   </g>
   <g id="patch_83">
    <path d="M 366.549669 303.64 
L 374.731074 303.64 
L 374.731074 303.64 
L 366.549669 303.64 
z
" clip-path="url(#pef2dac19b4)" style="fill: #32cd32; opacity: 0.7"/>
   </g>
   <g id="patch_84">
    <path d="M 374.731074 303.64 
L 382.912479 303.64 
L 382.912479 303.64 
L 374.731074 303.64 
z
" clip-path="url(#pef2dac19b4)" style="fill: #32cd32; opacity: 0.7"/>
   </g>
   <g id="patch_85">
    <path d="M 382.912479 303.64 
L 391.093884 303.64 
L 391.093884 303.64 
L 382.912479 303.64 
z
" clip-path="url(#pef2dac19b4)" style="fill: #32cd32; opacity: 0.7"/>
   </g>
   <g id="patch_86">
    <path d="M 391.093884 303.64 
L 399.275289 303.64 
L 399.275289 282.18652 
L 391.093884 282.18652 
z
" clip-path="url(#pef2dac19b4)" style="fill: #32cd32; opacity: 0.7"/>
   </g>
   <g id="patch_87">
    <path d="M 399.275289 303.64 
L 407.456694 303.64 
L 407.456694 303.64 
L 399.275289 303.64 
z
" clip-path="url(#pef2dac19b4)" style="fill: #32cd32; opacity: 0.7"/>
   </g>
   <g id="patch_88">
    <path d="M 407.456694 303.64 
L 415.638099 303.64 
L 415.638099 303.64 
L 407.456694 303.64 
z
" clip-path="url(#pef2dac19b4)" style="fill: #32cd32; opacity: 0.7"/>
   </g>
   <g id="patch_89">
    <path d="M 415.638099 303.64 
L 423.819504 303.64 
L 423.819504 303.64 
L 415.638099 303.64 
z
" clip-path="url(#pef2dac19b4)" style="fill: #32cd32; opacity: 0.7"/>
   </g>
   <g id="patch_90">
    <path d="M 423.819504 303.64 
L 432.000909 303.64 
L 432.000909 303.64 
L 423.819504 303.64 
z
" clip-path="url(#pef2dac19b4)" style="fill: #32cd32; opacity: 0.7"/>
   </g>
   <g id="matplotlib.axis_1">
    <g id="xtick_1">
     <g id="line2d_1">
      <path d="M 76.109793 303.64 
L 76.109793 10.8 
" clip-path="url(#pef2dac19b4)" style="fill: none; stroke-dasharray: 2.96,1.28; stroke-dashoffset: 0; stroke: #b0b0b0; stroke-opacity: 0.6; stroke-width: 0.8"/>
     </g>
     <g id="line2d_2">
      <defs>
       <path id="ma38fe03fed" d="M 0 0 
L 0 3.5 
" style="stroke: #000000; stroke-width: 0.8"/>
      </defs>
      <g>
       <use xlink:href="#ma38fe03fed" x="76.109793" y="303.64" style="stroke: #000000; stroke-width: 0.8"/>
      </g>
     </g>
     <g id="text_1">
      <!-- 0 -->
      <g transform="translate(72.928543 318.238437) scale(0.1 -0.1)">
       <defs>
        <path id="DejaVuSans-30" d="M 2034 4250 
Q 1547 4250 1301 3770 
Q 1056 3291 1056 2328 
Q 1056 1369 1301 889 
Q 1547 409 2034 409 
Q 2525 409 2770 889 
Q 3016 1369 3016 2328 
Q 3016 3291 2770 3770 
Q 2525 4250 2034 4250 
z
M 2034 4750 
Q 2819 4750 3233 4129 
Q 3647 3509 3647 2328 
Q 3647 1150 3233 529 
Q 2819 -91 2034 -91 
Q 1250 -91 836 529 
Q 422 1150 422 2328 
Q 422 3509 836 4129 
Q 1250 4750 2034 4750 
z
" transform="scale(0.015625)"/>
       </defs>
       <use xlink:href="#DejaVuSans-30"/>
      </g>
     </g>
    </g>
    <g id="xtick_2">
     <g id="line2d_3">
      <path d="M 156.105753 303.64 
L 156.105753 10.8 
" clip-path="url(#pef2dac19b4)" style="fill: none; stroke-dasharray: 2.96,1.28; stroke-dashoffset: 0; stroke: #b0b0b0; stroke-opacity: 0.6; stroke-width: 0.8"/>
     </g>
     <g id="line2d_4">
      <g>
       <use xlink:href="#ma38fe03fed" x="156.105753" y="303.64" style="stroke: #000000; stroke-width: 0.8"/>
      </g>
     </g>
     <g id="text_2">
      <!-- 10 -->
      <g transform="translate(149.743253 318.238437) scale(0.1 -0.1)">
       <defs>
        <path id="DejaVuSans-31" d="M 794 531 
L 1825 531 
L 1825 4091 
L 703 3866 
L 703 4441 
L 1819 4666 
L 2450 4666 
L 2450 531 
L 3481 531 
L 3481 0 
L 794 0 
L 794 531 
z
" transform="scale(0.015625)"/>
       </defs>
       <use xlink:href="#DejaVuSans-31"/>
       <use xlink:href="#DejaVuSans-30" x="63.623047"/>
      </g>
     </g>
    </g>
    <g id="xtick_3">
     <g id="line2d_5">
      <path d="M 236.101713 303.64 
L 236.101713 10.8 
" clip-path="url(#pef2dac19b4)" style="fill: none; stroke-dasharray: 2.96,1.28; stroke-dashoffset: 0; stroke: #b0b0b0; stroke-opacity: 0.6; stroke-width: 0.8"/>
     </g>
     <g id="line2d_6">
      <g>
       <use xlink:href="#ma38fe03fed" x="236.101713" y="303.64" style="stroke: #000000; stroke-width: 0.8"/>
      </g>
     </g>
     <g id="text_3">
      <!-- 20 -->
      <g transform="translate(229.739213 318.238437) scale(0.1 -0.1)">
       <defs>
        <path id="DejaVuSans-32" d="M 1228 531 
L 3431 531 
L 3431 0 
L 469 0 
L 469 531 
Q 828 903 1448 1529 
Q 2069 2156 2228 2338 
Q 2531 2678 2651 2914 
Q 2772 3150 2772 3378 
Q 2772 3750 2511 3984 
Q 2250 4219 1831 4219 
Q 1534 4219 1204 4116 
Q 875 4013 500 3803 
L 500 4441 
Q 881 4594 1212 4672 
Q 1544 4750 1819 4750 
Q 2544 4750 2975 4387 
Q 3406 4025 3406 3419 
Q 3406 3131 3298 2873 
Q 3191 2616 2906 2266 
Q 2828 2175 2409 1742 
Q 1991 1309 1228 531 
z
" transform="scale(0.015625)"/>
       </defs>
       <use xlink:href="#DejaVuSans-32"/>
       <use xlink:href="#DejaVuSans-30" x="63.623047"/>
      </g>
     </g>
    </g>
    <g id="xtick_4">
     <g id="line2d_7">
      <path d="M 316.097672 303.64 
L 316.097672 10.8 
" clip-path="url(#pef2dac19b4)" style="fill: none; stroke-dasharray: 2.96,1.28; stroke-dashoffset: 0; stroke: #b0b0b0; stroke-opacity: 0.6; stroke-width: 0.8"/>
     </g>
     <g id="line2d_8">
      <g>
       <use xlink:href="#ma38fe03fed" x="316.097672" y="303.64" style="stroke: #000000; stroke-width: 0.8"/>
      </g>
     </g>
     <g id="text_4">
      <!-- 30 -->
      <g transform="translate(309.735172 318.238437) scale(0.1 -0.1)">
       <defs>
        <path id="DejaVuSans-33" d="M 2597 2516 
Q 3050 2419 3304 2112 
Q 3559 1806 3559 1356 
Q 3559 666 3084 287 
Q 2609 -91 1734 -91 
Q 1441 -91 1130 -33 
Q 819 25 488 141 
L 488 750 
Q 750 597 1062 519 
Q 1375 441 1716 441 
Q 2309 441 2620 675 
Q 2931 909 2931 1356 
Q 2931 1769 2642 2001 
Q 2353 2234 1838 2234 
L 1294 2234 
L 1294 2753 
L 1863 2753 
Q 2328 2753 2575 2939 
Q 2822 3125 2822 3475 
Q 2822 3834 2567 4026 
Q 2313 4219 1838 4219 
Q 1578 4219 1281 4162 
Q 984 4106 628 3988 
L 628 4550 
Q 988 4650 1302 4700 
Q 1616 4750 1894 4750 
Q 2613 4750 3031 4423 
Q 3450 4097 3450 3541 
Q 3450 3153 3228 2886 
Q 3006 2619 2597 2516 
z
" transform="scale(0.015625)"/>
       </defs>
       <use xlink:href="#DejaVuSans-33"/>
       <use xlink:href="#DejaVuSans-30" x="63.623047"/>
      </g>
     </g>
    </g>
    <g id="xtick_5">
     <g id="line2d_9">
      <path d="M 396.093632 303.64 
L 396.093632 10.8 
" clip-path="url(#pef2dac19b4)" style="fill: none; stroke-dasharray: 2.96,1.28; stroke-dashoffset: 0; stroke: #b0b0b0; stroke-opacity: 0.6; stroke-width: 0.8"/>
     </g>
     <g id="line2d_10">
      <g>
       <use xlink:href="#ma38fe03fed" x="396.093632" y="303.64" style="stroke: #000000; stroke-width: 0.8"/>
      </g>
     </g>
     <g id="text_5">
      <!-- 40 -->
      <g transform="translate(389.731132 318.238437) scale(0.1 -0.1)">
       <defs>
        <path id="DejaVuSans-34" d="M 2419 4116 
L 825 1625 
L 2419 1625 
L 2419 4116 
z
M 2253 4666 
L 3047 4666 
L 3047 1625 
L 3713 1625 
L 3713 1100 
L 3047 1100 
L 3047 0 
L 2419 0 
L 2419 1100 
L 313 1100 
L 313 1709 
L 2253 4666 
z
" transform="scale(0.015625)"/>
       </defs>
       <use xlink:href="#DejaVuSans-34"/>
       <use xlink:href="#DejaVuSans-30" x="63.623047"/>
      </g>
     </g>
    </g>
    <g id="text_6">
     <!-- LANE_CHANGE-&gt;TOWARDS_THE_LEFT -->
     <g transform="translate(156.513125 331.74) scale(0.1 -0.1)">
      <defs>
       <path id="DejaVuSans-4c" d="M 628 4666 
L 1259 4666 
L 1259 531 
L 3531 531 
L 3531 0 
L 628 0 
L 628 4666 
z
" transform="scale(0.015625)"/>
       <path id="DejaVuSans-41" d="M 2188 4044 
L 1331 1722 
L 3047 1722 
L 2188 4044 
z
M 1831 4666 
L 2547 4666 
L 4325 0 
L 3669 0 
L 3244 1197 
L 1141 1197 
L 716 0 
L 50 0 
L 1831 4666 
z
" transform="scale(0.015625)"/>
       <path id="DejaVuSans-4e" d="M 628 4666 
L 1478 4666 
L 3547 763 
L 3547 4666 
L 4159 4666 
L 4159 0 
L 3309 0 
L 1241 3903 
L 1241 0 
L 628 0 
L 628 4666 
z
" transform="scale(0.015625)"/>
       <path id="DejaVuSans-45" d="M 628 4666 
L 3578 4666 
L 3578 4134 
L 1259 4134 
L 1259 2753 
L 3481 2753 
L 3481 2222 
L 1259 2222 
L 1259 531 
L 3634 531 
L 3634 0 
L 628 0 
L 628 4666 
z
" transform="scale(0.015625)"/>
       <path id="DejaVuSans-5f" d="M 3263 -1063 
L 3263 -1509 
L -63 -1509 
L -63 -1063 
L 3263 -1063 
z
" transform="scale(0.015625)"/>
       <path id="DejaVuSans-43" d="M 4122 4306 
L 4122 3641 
Q 3803 3938 3442 4084 
Q 3081 4231 2675 4231 
Q 1875 4231 1450 3742 
Q 1025 3253 1025 2328 
Q 1025 1406 1450 917 
Q 1875 428 2675 428 
Q 3081 428 3442 575 
Q 3803 722 4122 1019 
L 4122 359 
Q 3791 134 3420 21 
Q 3050 -91 2638 -91 
Q 1578 -91 968 557 
Q 359 1206 359 2328 
Q 359 3453 968 4101 
Q 1578 4750 2638 4750 
Q 3056 4750 3426 4639 
Q 3797 4528 4122 4306 
z
" transform="scale(0.015625)"/>
       <path id="DejaVuSans-48" d="M 628 4666 
L 1259 4666 
L 1259 2753 
L 3553 2753 
L 3553 4666 
L 4184 4666 
L 4184 0 
L 3553 0 
L 3553 2222 
L 1259 2222 
L 1259 0 
L 628 0 
L 628 4666 
z
" transform="scale(0.015625)"/>
       <path id="DejaVuSans-47" d="M 3809 666 
L 3809 1919 
L 2778 1919 
L 2778 2438 
L 4434 2438 
L 4434 434 
Q 4069 175 3628 42 
Q 3188 -91 2688 -91 
Q 1594 -91 976 548 
Q 359 1188 359 2328 
Q 359 3472 976 4111 
Q 1594 4750 2688 4750 
Q 3144 4750 3555 4637 
Q 3966 4525 4313 4306 
L 4313 3634 
Q 3963 3931 3569 4081 
Q 3175 4231 2741 4231 
Q 1884 4231 1454 3753 
Q 1025 3275 1025 2328 
Q 1025 1384 1454 906 
Q 1884 428 2741 428 
Q 3075 428 3337 486 
Q 3600 544 3809 666 
z
" transform="scale(0.015625)"/>
       <path id="DejaVuSans-2d" d="M 313 2009 
L 1997 2009 
L 1997 1497 
L 313 1497 
L 313 2009 
z
" transform="scale(0.015625)"/>
       <path id="DejaVuSans-3e" d="M 678 3150 
L 678 3719 
L 4684 2266 
L 4684 1747 
L 678 294 
L 678 863 
L 3897 2003 
L 678 3150 
z
" transform="scale(0.015625)"/>
       <path id="DejaVuSans-54" d="M -19 4666 
L 3928 4666 
L 3928 4134 
L 2272 4134 
L 2272 0 
L 1638 0 
L 1638 4134 
L -19 4134 
L -19 4666 
z
" transform="scale(0.015625)"/>
       <path id="DejaVuSans-4f" d="M 2522 4238 
Q 1834 4238 1429 3725 
Q 1025 3213 1025 2328 
Q 1025 1447 1429 934 
Q 1834 422 2522 422 
Q 3209 422 3611 934 
Q 4013 1447 4013 2328 
Q 4013 3213 3611 3725 
Q 3209 4238 2522 4238 
z
M 2522 4750 
Q 3503 4750 4090 4092 
Q 4678 3434 4678 2328 
Q 4678 1225 4090 567 
Q 3503 -91 2522 -91 
Q 1538 -91 948 565 
Q 359 1222 359 2328 
Q 359 3434 948 4092 
Q 1538 4750 2522 4750 
z
" transform="scale(0.015625)"/>
       <path id="DejaVuSans-57" d="M 213 4666 
L 850 4666 
L 1831 722 
L 2809 4666 
L 3519 4666 
L 4500 722 
L 5478 4666 
L 6119 4666 
L 4947 0 
L 4153 0 
L 3169 4050 
L 2175 0 
L 1381 0 
L 213 4666 
z
" transform="scale(0.015625)"/>
       <path id="DejaVuSans-52" d="M 2841 2188 
Q 3044 2119 3236 1894 
Q 3428 1669 3622 1275 
L 4263 0 
L 3584 0 
L 2988 1197 
Q 2756 1666 2539 1819 
Q 2322 1972 1947 1972 
L 1259 1972 
L 1259 0 
L 628 0 
L 628 4666 
L 2053 4666 
Q 2853 4666 3247 4331 
Q 3641 3997 3641 3322 
Q 3641 2881 3436 2590 
Q 3231 2300 2841 2188 
z
M 1259 4147 
L 1259 2491 
L 2053 2491 
Q 2509 2491 2742 2702 
Q 2975 2913 2975 3322 
Q 2975 3731 2742 3939 
Q 2509 4147 2053 4147 
L 1259 4147 
z
" transform="scale(0.015625)"/>
       <path id="DejaVuSans-44" d="M 1259 4147 
L 1259 519 
L 2022 519 
Q 2988 519 3436 956 
Q 3884 1394 3884 2338 
Q 3884 3275 3436 3711 
Q 2988 4147 2022 4147 
L 1259 4147 
z
M 628 4666 
L 1925 4666 
Q 3281 4666 3915 4102 
Q 4550 3538 4550 2338 
Q 4550 1131 3912 565 
Q 3275 0 1925 0 
L 628 0 
L 628 4666 
z
" transform="scale(0.015625)"/>
       <path id="DejaVuSans-53" d="M 3425 4513 
L 3425 3897 
Q 3066 4069 2747 4153 
Q 2428 4238 2131 4238 
Q 1616 4238 1336 4038 
Q 1056 3838 1056 3469 
Q 1056 3159 1242 3001 
Q 1428 2844 1947 2747 
L 2328 2669 
Q 3034 2534 3370 2195 
Q 3706 1856 3706 1288 
Q 3706 609 3251 259 
Q 2797 -91 1919 -91 
Q 1588 -91 1214 -16 
Q 841 59 441 206 
L 441 856 
Q 825 641 1194 531 
Q 1563 422 1919 422 
Q 2459 422 2753 634 
Q 3047 847 3047 1241 
Q 3047 1584 2836 1778 
Q 2625 1972 2144 2069 
L 1759 2144 
Q 1053 2284 737 2584 
Q 422 2884 422 3419 
Q 422 4038 858 4394 
Q 1294 4750 2059 4750 
Q 2388 4750 2728 4690 
Q 3069 4631 3425 4513 
z
" transform="scale(0.015625)"/>
       <path id="DejaVuSans-46" d="M 628 4666 
L 3309 4666 
L 3309 4134 
L 1259 4134 
L 1259 2759 
L 3109 2759 
L 3109 2228 
L 1259 2228 
L 1259 0 
L 628 0 
L 628 4666 
z
" transform="scale(0.015625)"/>
      </defs>
      <use xlink:href="#DejaVuSans-4c"/>
      <use xlink:href="#DejaVuSans-41" x="57.962891"/>
      <use xlink:href="#DejaVuSans-4e" x="126.371094"/>
      <use xlink:href="#DejaVuSans-45" x="201.175781"/>
      <use xlink:href="#DejaVuSans-5f" x="264.359375"/>
      <use xlink:href="#DejaVuSans-43" x="314.359375"/>
      <use xlink:href="#DejaVuSans-48" x="384.183594"/>
      <use xlink:href="#DejaVuSans-41" x="459.378906"/>
      <use xlink:href="#DejaVuSans-4e" x="527.787109"/>
      <use xlink:href="#DejaVuSans-47" x="602.591797"/>
      <use xlink:href="#DejaVuSans-45" x="680.082031"/>
      <use xlink:href="#DejaVuSans-2d" x="743.265625"/>
      <use xlink:href="#DejaVuSans-3e" x="779.349609"/>
      <use xlink:href="#DejaVuSans-54" x="863.138672"/>
      <use xlink:href="#DejaVuSans-4f" x="924.222656"/>
      <use xlink:href="#DejaVuSans-57" x="1002.933594"/>
      <use xlink:href="#DejaVuSans-41" x="1096.310547"/>
      <use xlink:href="#DejaVuSans-52" x="1164.71875"/>
      <use xlink:href="#DejaVuSans-44" x="1234.201172"/>
      <use xlink:href="#DejaVuSans-53" x="1311.203125"/>
      <use xlink:href="#DejaVuSans-5f" x="1374.679688"/>
      <use xlink:href="#DejaVuSans-54" x="1424.679688"/>
      <use xlink:href="#DejaVuSans-48" x="1485.763672"/>
      <use xlink:href="#DejaVuSans-45" x="1560.958984"/>
      <use xlink:href="#DejaVuSans-5f" x="1624.142578"/>
      <use xlink:href="#DejaVuSans-4c" x="1674.142578"/>
      <use xlink:href="#DejaVuSans-45" x="1729.855469"/>
      <use xlink:href="#DejaVuSans-46" x="1793.039062"/>
      <use xlink:href="#DejaVuSans-54" x="1848.808594"/>
     </g>
    </g>
   </g>
   <g id="matplotlib.axis_2">
    <g id="ytick_1">
     <g id="line2d_11">
      <path d="M 54.02 303.64 
L 450 303.64 
" clip-path="url(#pef2dac19b4)" style="fill: none; stroke-dasharray: 2.96,1.28; stroke-dashoffset: 0; stroke: #b0b0b0; stroke-opacity: 0.6; stroke-width: 0.8"/>
     </g>
     <g id="line2d_12">
      <defs>
       <path id="m5168b998d2" d="M 0 0 
L -3.5 0 
" style="stroke: #000000; stroke-width: 0.8"/>
      </defs>
      <g>
       <use xlink:href="#m5168b998d2" x="54.02" y="303.64" style="stroke: #000000; stroke-width: 0.8"/>
      </g>
     </g>
     <g id="text_7">
      <!-- 0.00 -->
      <g transform="translate(24.754375 307.439219) scale(0.1 -0.1)">
       <defs>
        <path id="DejaVuSans-2e" d="M 684 794 
L 1344 794 
L 1344 0 
L 684 0 
L 684 794 
z
" transform="scale(0.015625)"/>
       </defs>
       <use xlink:href="#DejaVuSans-30"/>
       <use xlink:href="#DejaVuSans-2e" x="63.623047"/>
       <use xlink:href="#DejaVuSans-30" x="95.410156"/>
       <use xlink:href="#DejaVuSans-30" x="159.033203"/>
      </g>
     </g>
    </g>
    <g id="ytick_2">
     <g id="line2d_13">
      <path d="M 54.02 269.314432 
L 450 269.314432 
" clip-path="url(#pef2dac19b4)" style="fill: none; stroke-dasharray: 2.96,1.28; stroke-dashoffset: 0; stroke: #b0b0b0; stroke-opacity: 0.6; stroke-width: 0.8"/>
     </g>
     <g id="line2d_14">
      <g>
       <use xlink:href="#m5168b998d2" x="54.02" y="269.314432" style="stroke: #000000; stroke-width: 0.8"/>
      </g>
     </g>
     <g id="text_8">
      <!-- 0.05 -->
      <g transform="translate(24.754375 273.113651) scale(0.1 -0.1)">
       <defs>
        <path id="DejaVuSans-35" d="M 691 4666 
L 3169 4666 
L 3169 4134 
L 1269 4134 
L 1269 2991 
Q 1406 3038 1543 3061 
Q 1681 3084 1819 3084 
Q 2600 3084 3056 2656 
Q 3513 2228 3513 1497 
Q 3513 744 3044 326 
Q 2575 -91 1722 -91 
Q 1428 -91 1123 -41 
Q 819 9 494 109 
L 494 744 
Q 775 591 1075 516 
Q 1375 441 1709 441 
Q 2250 441 2565 725 
Q 2881 1009 2881 1497 
Q 2881 1984 2565 2268 
Q 2250 2553 1709 2553 
Q 1456 2553 1204 2497 
Q 953 2441 691 2322 
L 691 4666 
z
" transform="scale(0.015625)"/>
       </defs>
       <use xlink:href="#DejaVuSans-30"/>
       <use xlink:href="#DejaVuSans-2e" x="63.623047"/>
       <use xlink:href="#DejaVuSans-30" x="95.410156"/>
       <use xlink:href="#DejaVuSans-35" x="159.033203"/>
      </g>
     </g>
    </g>
    <g id="ytick_3">
     <g id="line2d_15">
      <path d="M 54.02 234.988864 
L 450 234.988864 
" clip-path="url(#pef2dac19b4)" style="fill: none; stroke-dasharray: 2.96,1.28; stroke-dashoffset: 0; stroke: #b0b0b0; stroke-opacity: 0.6; stroke-width: 0.8"/>
     </g>
     <g id="line2d_16">
      <g>
       <use xlink:href="#m5168b998d2" x="54.02" y="234.988864" style="stroke: #000000; stroke-width: 0.8"/>
      </g>
     </g>
     <g id="text_9">
      <!-- 0.10 -->
      <g transform="translate(24.754375 238.788083) scale(0.1 -0.1)">
       <use xlink:href="#DejaVuSans-30"/>
       <use xlink:href="#DejaVuSans-2e" x="63.623047"/>
       <use xlink:href="#DejaVuSans-31" x="95.410156"/>
       <use xlink:href="#DejaVuSans-30" x="159.033203"/>
      </g>
     </g>
    </g>
    <g id="ytick_4">
     <g id="line2d_17">
      <path d="M 54.02 200.663297 
L 450 200.663297 
" clip-path="url(#pef2dac19b4)" style="fill: none; stroke-dasharray: 2.96,1.28; stroke-dashoffset: 0; stroke: #b0b0b0; stroke-opacity: 0.6; stroke-width: 0.8"/>
     </g>
     <g id="line2d_18">
      <g>
       <use xlink:href="#m5168b998d2" x="54.02" y="200.663297" style="stroke: #000000; stroke-width: 0.8"/>
      </g>
     </g>
     <g id="text_10">
      <!-- 0.15 -->
      <g transform="translate(24.754375 204.462515) scale(0.1 -0.1)">
       <use xlink:href="#DejaVuSans-30"/>
       <use xlink:href="#DejaVuSans-2e" x="63.623047"/>
       <use xlink:href="#DejaVuSans-31" x="95.410156"/>
       <use xlink:href="#DejaVuSans-35" x="159.033203"/>
      </g>
     </g>
    </g>
    <g id="ytick_5">
     <g id="line2d_19">
      <path d="M 54.02 166.337729 
L 450 166.337729 
" clip-path="url(#pef2dac19b4)" style="fill: none; stroke-dasharray: 2.96,1.28; stroke-dashoffset: 0; stroke: #b0b0b0; stroke-opacity: 0.6; stroke-width: 0.8"/>
     </g>
     <g id="line2d_20">
      <g>
       <use xlink:href="#m5168b998d2" x="54.02" y="166.337729" style="stroke: #000000; stroke-width: 0.8"/>
      </g>
     </g>
     <g id="text_11">
      <!-- 0.20 -->
      <g transform="translate(24.754375 170.136948) scale(0.1 -0.1)">
       <use xlink:href="#DejaVuSans-30"/>
       <use xlink:href="#DejaVuSans-2e" x="63.623047"/>
       <use xlink:href="#DejaVuSans-32" x="95.410156"/>
       <use xlink:href="#DejaVuSans-30" x="159.033203"/>
      </g>
     </g>
    </g>
    <g id="ytick_6">
     <g id="line2d_21">
      <path d="M 54.02 132.012161 
L 450 132.012161 
" clip-path="url(#pef2dac19b4)" style="fill: none; stroke-dasharray: 2.96,1.28; stroke-dashoffset: 0; stroke: #b0b0b0; stroke-opacity: 0.6; stroke-width: 0.8"/>
     </g>
     <g id="line2d_22">
      <g>
       <use xlink:href="#m5168b998d2" x="54.02" y="132.012161" style="stroke: #000000; stroke-width: 0.8"/>
      </g>
     </g>
     <g id="text_12">
      <!-- 0.25 -->
      <g transform="translate(24.754375 135.81138) scale(0.1 -0.1)">
       <use xlink:href="#DejaVuSans-30"/>
       <use xlink:href="#DejaVuSans-2e" x="63.623047"/>
       <use xlink:href="#DejaVuSans-32" x="95.410156"/>
       <use xlink:href="#DejaVuSans-35" x="159.033203"/>
      </g>
     </g>
    </g>
    <g id="ytick_7">
     <g id="line2d_23">
      <path d="M 54.02 97.686593 
L 450 97.686593 
" clip-path="url(#pef2dac19b4)" style="fill: none; stroke-dasharray: 2.96,1.28; stroke-dashoffset: 0; stroke: #b0b0b0; stroke-opacity: 0.6; stroke-width: 0.8"/>
     </g>
     <g id="line2d_24">
      <g>
       <use xlink:href="#m5168b998d2" x="54.02" y="97.686593" style="stroke: #000000; stroke-width: 0.8"/>
      </g>
     </g>
     <g id="text_13">
      <!-- 0.30 -->
      <g transform="translate(24.754375 101.485812) scale(0.1 -0.1)">
       <use xlink:href="#DejaVuSans-30"/>
       <use xlink:href="#DejaVuSans-2e" x="63.623047"/>
       <use xlink:href="#DejaVuSans-33" x="95.410156"/>
       <use xlink:href="#DejaVuSans-30" x="159.033203"/>
      </g>
     </g>
    </g>
    <g id="ytick_8">
     <g id="line2d_25">
      <path d="M 54.02 63.361026 
L 450 63.361026 
" clip-path="url(#pef2dac19b4)" style="fill: none; stroke-dasharray: 2.96,1.28; stroke-dashoffset: 0; stroke: #b0b0b0; stroke-opacity: 0.6; stroke-width: 0.8"/>
     </g>
     <g id="line2d_26">
      <g>
       <use xlink:href="#m5168b998d2" x="54.02" y="63.361026" style="stroke: #000000; stroke-width: 0.8"/>
      </g>
     </g>
     <g id="text_14">
      <!-- 0.35 -->
      <g transform="translate(24.754375 67.160244) scale(0.1 -0.1)">
       <use xlink:href="#DejaVuSans-30"/>
       <use xlink:href="#DejaVuSans-2e" x="63.623047"/>
       <use xlink:href="#DejaVuSans-33" x="95.410156"/>
       <use xlink:href="#DejaVuSans-35" x="159.033203"/>
      </g>
     </g>
    </g>
    <g id="ytick_9">
     <g id="line2d_27">
      <path d="M 54.02 29.035458 
L 450 29.035458 
" clip-path="url(#pef2dac19b4)" style="fill: none; stroke-dasharray: 2.96,1.28; stroke-dashoffset: 0; stroke: #b0b0b0; stroke-opacity: 0.6; stroke-width: 0.8"/>
     </g>
     <g id="line2d_28">
      <g>
       <use xlink:href="#m5168b998d2" x="54.02" y="29.035458" style="stroke: #000000; stroke-width: 0.8"/>
      </g>
     </g>
     <g id="text_15">
      <!-- 0.40 -->
      <g transform="translate(24.754375 32.834677) scale(0.1 -0.1)">
       <use xlink:href="#DejaVuSans-30"/>
       <use xlink:href="#DejaVuSans-2e" x="63.623047"/>
       <use xlink:href="#DejaVuSans-34" x="95.410156"/>
       <use xlink:href="#DejaVuSans-30" x="159.033203"/>
      </g>
     </g>
    </g>
    <g id="text_16">
     <!-- Density -->
     <g transform="translate(18.674688 176.228594) rotate(-90) scale(0.1 -0.1)">
      <defs>
       <path id="DejaVuSans-65" d="M 3597 1894 
L 3597 1613 
L 953 1613 
Q 991 1019 1311 708 
Q 1631 397 2203 397 
Q 2534 397 2845 478 
Q 3156 559 3463 722 
L 3463 178 
Q 3153 47 2828 -22 
Q 2503 -91 2169 -91 
Q 1331 -91 842 396 
Q 353 884 353 1716 
Q 353 2575 817 3079 
Q 1281 3584 2069 3584 
Q 2775 3584 3186 3129 
Q 3597 2675 3597 1894 
z
M 3022 2063 
Q 3016 2534 2758 2815 
Q 2500 3097 2075 3097 
Q 1594 3097 1305 2825 
Q 1016 2553 972 2059 
L 3022 2063 
z
" transform="scale(0.015625)"/>
       <path id="DejaVuSans-6e" d="M 3513 2113 
L 3513 0 
L 2938 0 
L 2938 2094 
Q 2938 2591 2744 2837 
Q 2550 3084 2163 3084 
Q 1697 3084 1428 2787 
Q 1159 2491 1159 1978 
L 1159 0 
L 581 0 
L 581 3500 
L 1159 3500 
L 1159 2956 
Q 1366 3272 1645 3428 
Q 1925 3584 2291 3584 
Q 2894 3584 3203 3211 
Q 3513 2838 3513 2113 
z
" transform="scale(0.015625)"/>
       <path id="DejaVuSans-73" d="M 2834 3397 
L 2834 2853 
Q 2591 2978 2328 3040 
Q 2066 3103 1784 3103 
Q 1356 3103 1142 2972 
Q 928 2841 928 2578 
Q 928 2378 1081 2264 
Q 1234 2150 1697 2047 
L 1894 2003 
Q 2506 1872 2764 1633 
Q 3022 1394 3022 966 
Q 3022 478 2636 193 
Q 2250 -91 1575 -91 
Q 1294 -91 989 -36 
Q 684 19 347 128 
L 347 722 
Q 666 556 975 473 
Q 1284 391 1588 391 
Q 1994 391 2212 530 
Q 2431 669 2431 922 
Q 2431 1156 2273 1281 
Q 2116 1406 1581 1522 
L 1381 1569 
Q 847 1681 609 1914 
Q 372 2147 372 2553 
Q 372 3047 722 3315 
Q 1072 3584 1716 3584 
Q 2034 3584 2315 3537 
Q 2597 3491 2834 3397 
z
" transform="scale(0.015625)"/>
       <path id="DejaVuSans-69" d="M 603 3500 
L 1178 3500 
L 1178 0 
L 603 0 
L 603 3500 
z
M 603 4863 
L 1178 4863 
L 1178 4134 
L 603 4134 
L 603 4863 
z
" transform="scale(0.015625)"/>
       <path id="DejaVuSans-74" d="M 1172 4494 
L 1172 3500 
L 2356 3500 
L 2356 3053 
L 1172 3053 
L 1172 1153 
Q 1172 725 1289 603 
Q 1406 481 1766 481 
L 2356 481 
L 2356 0 
L 1766 0 
Q 1100 0 847 248 
Q 594 497 594 1153 
L 594 3053 
L 172 3053 
L 172 3500 
L 594 3500 
L 594 4494 
L 1172 4494 
z
" transform="scale(0.015625)"/>
       <path id="DejaVuSans-79" d="M 2059 -325 
Q 1816 -950 1584 -1140 
Q 1353 -1331 966 -1331 
L 506 -1331 
L 506 -850 
L 844 -850 
Q 1081 -850 1212 -737 
Q 1344 -625 1503 -206 
L 1606 56 
L 191 3500 
L 800 3500 
L 1894 763 
L 2988 3500 
L 3597 3500 
L 2059 -325 
z
" transform="scale(0.015625)"/>
      </defs>
      <use xlink:href="#DejaVuSans-44"/>
      <use xlink:href="#DejaVuSans-65" x="77.001953"/>
      <use xlink:href="#DejaVuSans-6e" x="138.525391"/>
      <use xlink:href="#DejaVuSans-73" x="201.904297"/>
      <use xlink:href="#DejaVuSans-69" x="254.003906"/>
      <use xlink:href="#DejaVuSans-74" x="281.787109"/>
      <use xlink:href="#DejaVuSans-79" x="320.996094"/>
     </g>
    </g>
   </g>
   <g id="patch_91">
    <path d="M 54.02 303.64 
L 54.02 10.8 
" style="fill: none; stroke: #000000; stroke-width: 0.8; stroke-linejoin: miter; stroke-linecap: square"/>
   </g>
   <g id="patch_92">
    <path d="M 450 303.64 
L 450 10.8 
" style="fill: none; stroke: #000000; stroke-width: 0.8; stroke-linejoin: miter; stroke-linecap: square"/>
   </g>
   <g id="patch_93">
    <path d="M 54.02 303.64 
L 450 303.64 
" style="fill: none; stroke: #000000; stroke-width: 0.8; stroke-linejoin: miter; stroke-linecap: square"/>
   </g>
   <g id="patch_94">
    <path d="M 54.02 10.8 
L 450 10.8 
" style="fill: none; stroke: #000000; stroke-width: 0.8; stroke-linejoin: miter; stroke-linecap: square"/>
   </g>
   <g id="legend_1">
    <g id="patch_95">
     <path d="M 293.423437 48.15625 
L 443 48.15625 
Q 445 48.15625 445 46.15625 
L 445 17.8 
Q 445 15.8 443 15.8 
L 293.423437 15.8 
Q 291.423437 15.8 291.423437 17.8 
L 291.423437 46.15625 
Q 291.423437 48.15625 293.423437 48.15625 
z
" style="fill: #ffffff; opacity: 0.8; stroke: #cccccc; stroke-linejoin: miter"/>
    </g>
    <g id="patch_96">
     <path d="M 295.423437 27.398438 
L 315.423437 27.398438 
L 315.423437 20.398438 
L 295.423437 20.398438 
z
" style="fill: #dc143c"/>
    </g>
    <g id="text_17">
     <!-- New Data (Ego Vehicle) -->
     <g transform="translate(323.423437 27.398438) scale(0.1 -0.1)">
      <defs>
       <path id="DejaVuSans-77" d="M 269 3500 
L 844 3500 
L 1563 769 
L 2278 3500 
L 2956 3500 
L 3675 769 
L 4391 3500 
L 4966 3500 
L 4050 0 
L 3372 0 
L 2619 2869 
L 1863 0 
L 1184 0 
L 269 3500 
z
" transform="scale(0.015625)"/>
       <path id="DejaVuSans-20" transform="scale(0.015625)"/>
       <path id="DejaVuSans-61" d="M 2194 1759 
Q 1497 1759 1228 1600 
Q 959 1441 959 1056 
Q 959 750 1161 570 
Q 1363 391 1709 391 
Q 2188 391 2477 730 
Q 2766 1069 2766 1631 
L 2766 1759 
L 2194 1759 
z
M 3341 1997 
L 3341 0 
L 2766 0 
L 2766 531 
Q 2569 213 2275 61 
Q 1981 -91 1556 -91 
Q 1019 -91 701 211 
Q 384 513 384 1019 
Q 384 1609 779 1909 
Q 1175 2209 1959 2209 
L 2766 2209 
L 2766 2266 
Q 2766 2663 2505 2880 
Q 2244 3097 1772 3097 
Q 1472 3097 1187 3025 
Q 903 2953 641 2809 
L 641 3341 
Q 956 3463 1253 3523 
Q 1550 3584 1831 3584 
Q 2591 3584 2966 3190 
Q 3341 2797 3341 1997 
z
" transform="scale(0.015625)"/>
       <path id="DejaVuSans-28" d="M 1984 4856 
Q 1566 4138 1362 3434 
Q 1159 2731 1159 2009 
Q 1159 1288 1364 580 
Q 1569 -128 1984 -844 
L 1484 -844 
Q 1016 -109 783 600 
Q 550 1309 550 2009 
Q 550 2706 781 3412 
Q 1013 4119 1484 4856 
L 1984 4856 
z
" transform="scale(0.015625)"/>
       <path id="DejaVuSans-67" d="M 2906 1791 
Q 2906 2416 2648 2759 
Q 2391 3103 1925 3103 
Q 1463 3103 1205 2759 
Q 947 2416 947 1791 
Q 947 1169 1205 825 
Q 1463 481 1925 481 
Q 2391 481 2648 825 
Q 2906 1169 2906 1791 
z
M 3481 434 
Q 3481 -459 3084 -895 
Q 2688 -1331 1869 -1331 
Q 1566 -1331 1297 -1286 
Q 1028 -1241 775 -1147 
L 775 -588 
Q 1028 -725 1275 -790 
Q 1522 -856 1778 -856 
Q 2344 -856 2625 -561 
Q 2906 -266 2906 331 
L 2906 616 
Q 2728 306 2450 153 
Q 2172 0 1784 0 
Q 1141 0 747 490 
Q 353 981 353 1791 
Q 353 2603 747 3093 
Q 1141 3584 1784 3584 
Q 2172 3584 2450 3431 
Q 2728 3278 2906 2969 
L 2906 3500 
L 3481 3500 
L 3481 434 
z
" transform="scale(0.015625)"/>
       <path id="DejaVuSans-6f" d="M 1959 3097 
Q 1497 3097 1228 2736 
Q 959 2375 959 1747 
Q 959 1119 1226 758 
Q 1494 397 1959 397 
Q 2419 397 2687 759 
Q 2956 1122 2956 1747 
Q 2956 2369 2687 2733 
Q 2419 3097 1959 3097 
z
M 1959 3584 
Q 2709 3584 3137 3096 
Q 3566 2609 3566 1747 
Q 3566 888 3137 398 
Q 2709 -91 1959 -91 
Q 1206 -91 779 398 
Q 353 888 353 1747 
Q 353 2609 779 3096 
Q 1206 3584 1959 3584 
z
" transform="scale(0.015625)"/>
       <path id="DejaVuSans-56" d="M 1831 0 
L 50 4666 
L 709 4666 
L 2188 738 
L 3669 4666 
L 4325 4666 
L 2547 0 
L 1831 0 
z
" transform="scale(0.015625)"/>
       <path id="DejaVuSans-68" d="M 3513 2113 
L 3513 0 
L 2938 0 
L 2938 2094 
Q 2938 2591 2744 2837 
Q 2550 3084 2163 3084 
Q 1697 3084 1428 2787 
Q 1159 2491 1159 1978 
L 1159 0 
L 581 0 
L 581 4863 
L 1159 4863 
L 1159 2956 
Q 1366 3272 1645 3428 
Q 1925 3584 2291 3584 
Q 2894 3584 3203 3211 
Q 3513 2838 3513 2113 
z
" transform="scale(0.015625)"/>
       <path id="DejaVuSans-63" d="M 3122 3366 
L 3122 2828 
Q 2878 2963 2633 3030 
Q 2388 3097 2138 3097 
Q 1578 3097 1268 2742 
Q 959 2388 959 1747 
Q 959 1106 1268 751 
Q 1578 397 2138 397 
Q 2388 397 2633 464 
Q 2878 531 3122 666 
L 3122 134 
Q 2881 22 2623 -34 
Q 2366 -91 2075 -91 
Q 1284 -91 818 406 
Q 353 903 353 1747 
Q 353 2603 823 3093 
Q 1294 3584 2113 3584 
Q 2378 3584 2631 3529 
Q 2884 3475 3122 3366 
z
" transform="scale(0.015625)"/>
       <path id="DejaVuSans-6c" d="M 603 4863 
L 1178 4863 
L 1178 0 
L 603 0 
L 603 4863 
z
" transform="scale(0.015625)"/>
       <path id="DejaVuSans-29" d="M 513 4856 
L 1013 4856 
Q 1481 4119 1714 3412 
Q 1947 2706 1947 2009 
Q 1947 1309 1714 600 
Q 1481 -109 1013 -844 
L 513 -844 
Q 928 -128 1133 580 
Q 1338 1288 1338 2009 
Q 1338 2731 1133 3434 
Q 928 4138 513 4856 
z
" transform="scale(0.015625)"/>
      </defs>
      <use xlink:href="#DejaVuSans-4e"/>
      <use xlink:href="#DejaVuSans-65" x="74.804688"/>
      <use xlink:href="#DejaVuSans-77" x="136.328125"/>
      <use xlink:href="#DejaVuSans-20" x="218.115234"/>
      <use xlink:href="#DejaVuSans-44" x="249.902344"/>
      <use xlink:href="#DejaVuSans-61" x="326.904297"/>
      <use xlink:href="#DejaVuSans-74" x="388.183594"/>
      <use xlink:href="#DejaVuSans-61" x="427.392578"/>
      <use xlink:href="#DejaVuSans-20" x="488.671875"/>
      <use xlink:href="#DejaVuSans-28" x="520.458984"/>
      <use xlink:href="#DejaVuSans-45" x="559.472656"/>
      <use xlink:href="#DejaVuSans-67" x="622.65625"/>
      <use xlink:href="#DejaVuSans-6f" x="686.132812"/>
      <use xlink:href="#DejaVuSans-20" x="747.314453"/>
      <use xlink:href="#DejaVuSans-56" x="779.101562"/>
      <use xlink:href="#DejaVuSans-65" x="839.759766"/>
      <use xlink:href="#DejaVuSans-68" x="901.283203"/>
      <use xlink:href="#DejaVuSans-69" x="964.662109"/>
      <use xlink:href="#DejaVuSans-63" x="992.445312"/>
      <use xlink:href="#DejaVuSans-6c" x="1047.425781"/>
      <use xlink:href="#DejaVuSans-65" x="1075.208984"/>
      <use xlink:href="#DejaVuSans-29" x="1136.732422"/>
     </g>
    </g>
    <g id="patch_97">
     <path d="M 295.423437 42.076563 
L 315.423437 42.076563 
L 315.423437 35.076563 
L 295.423437 35.076563 
z
" style="fill: #32cd32; opacity: 0.7"/>
    </g>
    <g id="text_18">
     <!-- Old Data (Ego Vehicle) -->
     <g transform="translate(323.423437 42.076563) scale(0.1 -0.1)">
      <defs>
       <path id="DejaVuSans-64" d="M 2906 2969 
L 2906 4863 
L 3481 4863 
L 3481 0 
L 2906 0 
L 2906 525 
Q 2725 213 2448 61 
Q 2172 -91 1784 -91 
Q 1150 -91 751 415 
Q 353 922 353 1747 
Q 353 2572 751 3078 
Q 1150 3584 1784 3584 
Q 2172 3584 2448 3432 
Q 2725 3281 2906 2969 
z
M 947 1747 
Q 947 1113 1208 752 
Q 1469 391 1925 391 
Q 2381 391 2643 752 
Q 2906 1113 2906 1747 
Q 2906 2381 2643 2742 
Q 2381 3103 1925 3103 
Q 1469 3103 1208 2742 
Q 947 2381 947 1747 
z
" transform="scale(0.015625)"/>
      </defs>
      <use xlink:href="#DejaVuSans-4f"/>
      <use xlink:href="#DejaVuSans-6c" x="78.710938"/>
      <use xlink:href="#DejaVuSans-64" x="106.494141"/>
      <use xlink:href="#DejaVuSans-20" x="169.970703"/>
      <use xlink:href="#DejaVuSans-44" x="201.757812"/>
      <use xlink:href="#DejaVuSans-61" x="278.759766"/>
      <use xlink:href="#DejaVuSans-74" x="340.039062"/>
      <use xlink:href="#DejaVuSans-61" x="379.248047"/>
      <use xlink:href="#DejaVuSans-20" x="440.527344"/>
      <use xlink:href="#DejaVuSans-28" x="472.314453"/>
      <use xlink:href="#DejaVuSans-45" x="511.328125"/>
      <use xlink:href="#DejaVuSans-67" x="574.511719"/>
      <use xlink:href="#DejaVuSans-6f" x="637.988281"/>
      <use xlink:href="#DejaVuSans-20" x="699.169922"/>
      <use xlink:href="#DejaVuSans-56" x="730.957031"/>
      <use xlink:href="#DejaVuSans-65" x="791.615234"/>
      <use xlink:href="#DejaVuSans-68" x="853.138672"/>
      <use xlink:href="#DejaVuSans-69" x="916.517578"/>
      <use xlink:href="#DejaVuSans-63" x="944.300781"/>
      <use xlink:href="#DejaVuSans-6c" x="999.28125"/>
      <use xlink:href="#DejaVuSans-65" x="1027.064453"/>
      <use xlink:href="#DejaVuSans-29" x="1088.587891"/>
     </g>
    </g>
   </g>
  </g>
 </g>
 <defs>
  <clipPath id="pef2dac19b4">
   <rect x="54.02" y="10.8" width="395.98" height="292.84"/>
  </clipPath>
 </defs>
</svg>
